<svg xmlns="http://www.w3.org/2000/svg" viewBox="0 0 384 512"><path d="M318.7 268.7c-.2-36.7 16.4-64.4 50-84.8-18.8-26.9-47.2-41.7-84.1-44.6-35.9-2.8-74.3 22.7-95.1 22.7-20.3 0-51.5-22.7-80.1-22.1-38.6.6-74.1 22.4-94.2 57.5-40.2 70.3-10.4 174.5 29.2 231.7 19.3 27.9 42.1 59.4 73 58.4 29.8-1 41.5-19.3 77-19.3 35.2 0 46.1 19.3 77.3 18.7 31.8-.6 51.5-29.2 70.5-57.1 22.1-32.5 31.2-64.1 31.8-65.7-.7-.3-49.4-18.9-45.3-95.4zM245.5 86.8c16.3-19.8 27.3-47.4 24.3-75-24.8 1-52.6 16.6-69.5 36.4-14.9 17.5-27.5 45.9-23.7 72.8 27.5 2.1 52.6-14.4 68.9-34.2z"/></svg>