<?xml version="1.0" standalone="no"?><!DOCTYPE svg PUBLIC "-//W3C//DTD SVG 1.1//EN" "http://www.w3.org/Graphics/SVG/1.1/DTD/svg11.dtd"><svg t="1765167286984" class="icon" viewBox="0 0 1024 1024" version="1.1" xmlns="http://www.w3.org/2000/svg" p-id="6783" xmlns:xlink="http://www.w3.org/1999/xlink" width="200" height="200"><path d="M512 0c228.912762 0 414.47619 185.563429 414.47619 414.47619a414.183619 414.183619 0 0 1-190.317714 348.672l-5.753905 3.608381-14.750476 44.27581a97.52381 97.52381 0 0 1-87.503238 66.56l-5.022476 0.121905h-222.256762a97.52381 97.52381 0 0 1-92.525714-66.681905L293.546667 766.780952l-5.705143-3.608381A414.183619 414.183619 0 0 1 97.621333 423.399619L97.52381 414.47619C97.52381 185.563429 283.087238 0 512 0z m0 97.52381C336.944762 97.52381 195.047619 239.420952 195.047619 414.47619c0 116.248381 63.073524 221.379048 162.816 277.016381a48.761905 48.761905 0 0 1 22.503619 27.184762L400.822857 780.190476h222.281143l20.528762-61.561905a48.761905 48.761905 0 0 1 22.503619-27.136A316.806095 316.806095 0 0 0 828.952381 414.47619c0-175.055238-141.897143-316.952381-316.952381-316.95238z m0 48.761904c148.114286 0 268.190476 120.07619 268.190476 268.190476a48.761905 48.761905 0 0 1-97.401905 3.657143L682.666667 414.47619a170.666667 170.666667 0 0 0-170.666667-170.666666 48.761905 48.761905 0 1 1 0-97.52381z m-115.078095 780.190476h230.15619a24.380952 24.380952 0 0 1 23.649524 30.305524L646.095238 975.238095a64.365714 64.365714 0 0 1-62.464 48.761905h-143.262476a64.365714 64.365714 0 0 1-62.464-48.761905l-4.632381-18.456381A24.380952 24.380952 0 0 1 396.921905 926.47619z" fill="#ffffff" p-id="6784"></path></svg>