<?xml version="1.0" standalone="no"?><!DOCTYPE svg PUBLIC "-//W3C//DTD SVG 1.1//EN" "http://www.w3.org/Graphics/SVG/1.1/DTD/svg11.dtd"><svg t="1773065545495" class="icon" viewBox="0 0 1024 1024" version="1.1" xmlns="http://www.w3.org/2000/svg" p-id="9788" xmlns:xlink="http://www.w3.org/1999/xlink" width="256" height="256"><path d="M935.434796 157.995003c18.112122 14.530629 21.079644 41.238333 6.549015 59.350455L440.267813 844.004397c-14.530629 18.112122-41.238333 21.079644-59.350455 6.549016-18.112122-14.530629-21.079644-41.238333-6.549016-59.350455l501.715999-626.658939c14.530629-18.112122 41.238333-20.977316 59.350455-6.549016z" p-id="9789" fill="#ffffff"></path><path d="M93.169981 505.604477c16.372539-16.474868 43.284901-16.474868 59.65744-0.102329l283.961227 283.244929c16.474868 16.372539 16.474868 43.284901 0.102328 59.65744-16.372539 16.474868-43.284901 16.474868-59.657439 0.102328L93.169981 565.261917c-16.372539-16.372539-16.474868-43.182572 0-59.65744z" p-id="9790" fill="#ffffff"></path></svg>